/* XPM */
static char *result[] = {
/* columns rows colors chars-per-pixel */
"61 37 199 2 ",
"   c #4B3A2D",
".  c #533B27",
"X  c #554233",
"o  c #5D4B3B",
"O  c #694F39",
"+  c #755132",
"@  c #5F5144",
"#  c #614F40",
"$  c #645243",
"%  c #695647",
"&  c #69574A",
"*  c #6C5C4D",
"=  c #755A44",
"-  c #795B46",
";  c #705F4A",
":  c #6F5F52",
">  c #735F51",
",  c #7C624E",
"<  c #6C6159",
"1  c #726154",
"2  c #7C6654",
"3  c #7B6856",
"4  c #75665A",
"5  c #796759",
"6  c #776A5D",
"7  c #7C6B5D",
"8  c #766960",
"9  c #7B6D61",
"0  c #7F7063",
"q  c #7E726A",
"w  c #825D45",
"e  c #876040",
"r  c #84624B",
"t  c #8A654D",
"y  c #946D4E",
"u  c #836652",
"i  c #846955",
"p  c #8B6B56",
"a  c #826C5B",
"s  c #8A6E5A",
"d  c #916C54",
"f  c #926F59",
"g  c #8D715D",
"h  c #9C7455",
"j  c #94725A",
"k  c #9A765D",
"l  c #A27C5E",
"z  c #827265",
"x  c #8D7463",
"c  c #84756B",
"v  c #8A7669",
"b  c #85796D",
"n  c #8B7A6D",
"m  c #937562",
"M  c #957766",
"N  c #957A66",
"B  c #9B7A63",
"V  c #947B6C",
"C  c #9B7E6B",
"Z  c #807570",
"A  c #857A74",
"S  c #8C7D73",
"D  c #8B7F7A",
"F  c #947F72",
"G  c #A07D65",
"H  c #A37F69",
"J  c #9C826E",
"K  c #8E8175",
"L  c #8E837C",
"P  c #938275",
"I  c #9C8474",
"U  c #9B8977",
"Y  c #94857A",
"T  c #9B867A",
"R  c #96897D",
"E  c #9B8A7D",
"W  c #A48165",
"Q  c #AA8566",
"!  c #A3826C",
"~  c #A8856D",
"^  c #AE8B6D",
"/  c #A48673",
"(  c #A88670",
")  c #A48975",
"_  c #AB8A75",
"`  c #A48B7B",
"'  c #AB8D7A",
"]  c #B18D76",
"[  c #B28E7B",
"{  c #A4917F",
"}  c #AC917E",
"|  c #B19075",
" . c #B4947D",
".. c #B99478",
"X. c #928782",
"o. c #958A84",
"O. c #9C8D83",
"+. c #978E89",
"@. c #998E89",
"#. c #9E9185",
"$. c #9E928B",
"%. c #9F9590",
"&. c #A28E83",
"*. c #AB8E81",
"=. c #B08F81",
"-. c #A29285",
";. c #AC9383",
":. c #A79987",
">. c #AD9986",
",. c #A3958B",
"<. c #AC968A",
"1. c #A6998D",
"2. c #AB9A8E",
"3. c #B39583",
"4. c #B89780",
"5. c #B59A84",
"6. c #BA9A85",
"7. c #B29689",
"8. c #B39B8C",
"9. c #BA9C8B",
"0. c #A39691",
"q. c #A69A93",
"w. c #AB9D93",
"e. c #A69C99",
"r. c #AB9E99",
"t. c #B39E93",
"y. c #B99F91",
"u. c #B69F99",
"i. c #B5A08C",
"p. c #BCA08E",
"a. c #AEA096",
"s. c #ADA29B",
"d. c #B4A294",
"f. c #BBA394",
"g. c #BDAA97",
"h. c #B3A59B",
"j. c #BBA69A",
"k. c #B5A89E",
"l. c #BCA99D",
"z. c #AEA4A1",
"x. c #B2A6A2",
"c. c #B5A9A3",
"v. c #BBACA3",
"b. c #B6ADA9",
"n. c #BAAEAA",
"m. c #BCB0A6",
"M. c #BDB2AC",
"N. c #BFB5B1",
"B. c #C19C87",
"V. c #C3A48E",
"C. c #C2A594",
"Z. c #C5A795",
"A. c #CBAB96",
"S. c #C3AB9D",
"D. c #C9AD9D",
"F. c #C8B29E",
"G. c #C3AEA2",
"H. c #C6AEA5",
"J. c #C4B2A5",
"K. c #CAB2A4",
"L. c #CDB8A7",
"P. c #C4B4AB",
"I. c #CAB6AB",
"U. c #C6B9AC",
"Y. c #CCBAAD",
"T. c #D2B7A9",
"R. c #D1BAAD",
"E. c #C2B6B2",
"W. c #C5B9B3",
"Q. c #CCBCB2",
"!. c #C5BCB9",
"~. c #C9BDBB",
"^. c #D1BDB2",
"/. c #D8BFB1",
"(. c #CCC1BD",
"). c #D4C2B6",
"_. c #D9C2B3",
"`. c #D5C5BA",
"'. c #D9C6BC",
"]. c #D7C8BC",
"[. c #DBC9BD",
"{. c #E0CBBC",
"}. c #C9BFC1",
"|. c #CDC3C2",
" X c #D2C6C6",
".X c #D4C9C1",
"XX c #DCCCC3",
"oX c #D5CBCA",
"OX c #DACECB",
"+X c #DAD0C6",
"@X c #DCD2CB",
"#X c #DED4D1",
"$X c #E0CFC0",
"%X c #E2D1C6",
"&X c #E3D5CA",
"*X c #EBD7CD",
"=X c #E8D8CE",
"-X c #E2D7D1",
";X c #E9DCD5",
/* pixels */
"P w.a.2.j.S 2.E #.a.O.-.,.E b E E b 1.,.-.d.:.c -.2.-.w.n &.c -.P ,.2.P E n d.-.U 1.K a.P K -.7 Y K 2.S n ,.v.O.P P R ,.&.",
"#.' I ^.S.j.i.} Z.3 & 0 h.N.U.s.q.L o.1.R c 9 Y 2.O.P $ :.8 o ,.D.6.^.} r 3.g.F. .J d.W.i.} ` #.J ;.w.h.V t.I.XX).K.).S.j.",
"z 7.g.7.` y.g.f.f.g % 4 M.W.a.$.U.z.+.E ,.n E 0 z -.5 c c 9 6 V A.5._.H _ V.F.V.D.l.Y.(.S.{ ) 4 S.U O.,.P.h.T G.f.;.J.3.5 ",
":.;.j.;.K.^.S.g.U./ % X m.M.M.M.s.s.L K w.o.S n P v z n ,.O.r.`  .3.F.K.5.S.A.6.Q.v.Y.'.{ d.E 1.2.).v.P l.j.'.P.I.G.XXv.:.",
"&.f.N 5.Y.[.f.D.`./ 1 A s.$.M.U.e.c a.q.s.R #.K R O.S : s.w.h.v 6.B. .' V.r D.5.XXJ.@X).3 w.:.R n t.W.H.l.P ).Y.H.J.^.'.#.",
",.} >.d.K.J.K.l.Y.C 9   s.m.W.W.c.c.q.q.h.#.P &.,.#.O.R r.1.X.w.9.]  ...f.8.g.j.m.P.'.I.S.J.>.a.x O.y.&.Q.,.w.d.l.^.y.[.2.",
"w.) j P.` t.i.R.F.C.2 b k.0.b.M.a.b.q.a.a.a.0.R O.0.O.o.X.c.k.<.p.B k Q p.J C a.K.J.`.d.P J.d.1.&.<.v.^.J.t.j.w.t.d.Y.S.w.",
"w.' } / J 7.F.S.I N $ 1 !.h.%.P.U.a.M.$.c.a.$.+.q.o.q.#.e.S M.w.9.p.) V. .N <.l.v.Q.2.).F.].i.1.*.` v x.G.&.Q.t.*.^.Y.g.V ",
"O.x m E M P a 3 $ o c % $ % 0.M.M.h.P.,.h.s.w.w.: h.c.x.,.. % T d.' t.<.` i.t.&.2.Y.2.d.;.P ; Y 2 I.I I.'.y.XX).I./.H.= -.",
"-.,.,.w.O.@.-.,.w.,.1.b P ,.R E L -.#.#.&.n 1.1.O.M.k.2.2.w.w.P T S P R Y R Y ,.,.2.` -.P P Y 2.,.,.-.,.w.,.,.F O.w.2.2.#.",
"R 2 a a V . E >.&.z V , , O 8.0 -Xd.k.} >.u N ) } Y.g.f.<.k.,.& I.XX).d.l.y.t.;.m K L t.;.l.s.c.s.x.e.q.e.e.x.$.W.n.%.z.#.",
"#.P ;.*.P n.F G.8.x C ! p I s O.@X@Xj.>.g ) E K.I.[.K.U.f.5 d.f.y.^.j.f.S.I.G.Q.g v h.2.j.2.t.E.W.r.x.n.z.z.E.E.E.n.c.b.k.",
"2.k.j.I ) v.;.C.D.j 6.9.r u ' S ;X&XK.f.{.F.P.D.H.g.Y.d.K.c 7.g.^.f.'.`.G.).l.Y.j z q.&.2.j.l.k.%.x.M.!.c.b.b.r.z.r.b.D a.",
"n ,.Y Y.t.J._.9.[.V.( I / C 8.,.=XS.d.d.[.XX_.).m.f.H.5.f.d.y.t.H.;.XXQ.^.-X*XOX;.6 ,.Y -.T d.l.k.b.e.x.z.b.n.E.z.q.z.$.h.",
"v.t.2.C <.j.9. .C.] [ ' = -.3.,.@X`.).[.d.S.[.`.R.S.R.<.).h.I U.S.W.v.H.`.XXXX^.8.n  XO.n ` 2.d.,.h.k.x.r.r.r.x.%.,.X.s.1.",
"q.t.I ) u.t.7.j.5.H N ) s p 9.#.&Xg.&XU D.Y.F.K.K.T.7.U..X,.8.f.Q.I j.2.].U.[.Q.I -.x.S n n ` ,.2.E w.,.0.x.D o.x.q.A 0.-.",
"r.E.*./ t.*X2.j.f.H - ' I s ` E ).L.f.i.I J.9.S.i.{.D.].g.w.;.x ` F ' 2.H.d.K.Q.C 5 $.P c 8 a , P w.~.<.b L O.o.A b.9 c R ",
"R M s u.2 ;.G.d.K.N ) C m p . -.l.Y.R.} ) M D.i.R.%XJ.g.;.-.m &.` ' *.8.x j.I 7.m 1 z R $.A E.j.P O.a.X.,.s.c q.L X.L 4 O.",
"-.2.w.,.,.R R -.o.d.O.,.,.R ,.$.k.l.,.:.h.m.v.w.E 2.` T w.u.#.s.2.w.<.c.2.j.w.,.m.2.q.,.w.:.,.w.-.-.w.d.h.,.a.,.-.m.w.:.-.",
"k.C C F I s g / / P 3.S f.v.P.,.O.k.s.v.,.v.Y.w.2.'.2.:.N B g - ` $ p i C &.F H.} 5.Z.f.2.w.K./ = v N 2 2 = I -.;.g.K.`.-.",
"d.~ V...h ' ~ ~  .( 3.T 7.J.c.k.v.c.N.s.m.M.s.r.Y.d.3 j.f g _ j j H ;.f / I f.f.D.8.` G.Y P I.7.j.S.y.I I ` I.].Q.`.U.).` ",
"c V.Q ] 4.6.G W 9.9.y.,.v.,.U.x.P.c.q.$.q.c.x.c.XXI.#.m u ) 3.d B ( N H <.9.;.K.S.f.^.J.o P ^.8.d.K.P.I ^.Y.^.`.P.P.).Y.2.",
"S H ~ ( k e H 9.9.*.H.2.2.,.].s.h.q.$.h.W.s.s.m.Q.l.&.! ( [ ~ G ' ~ s 9.I d.8.'.+Xl.J.g.> E j.g.v.f.d.2.I.].P.w.l.Y.`.[.2.",
"w...Q ~ l Q .._ 6.' Y.,.<.$X.XM.!.s.$.s.M.m.s.Q.a.P.T m / G B - N =.*.S./ C 8.t.S.;.I.&X3 O.y.` J.K.c.t.P.%XJ.U.I.j.Y._.a.",
"<.d _ W h }  .9.3.C.G.w.I P.d.w.,.s.w.W.s.s.W.U.].).P n ) w _ / ' M 8.C ` ;.'.5.f.;.d.[.Y ,.C.u./ &.P.j.G.).J.(.J.I.[._.d.",
"O._ l | y ^ 9.3.4.H.G.2.a j.%Xm.M.s.K c.m.,.W.k.).l.2.;.9.Q 7.' f B ~ H ' p j.8.` ;.Y.v., O.I ` f.7.;.Q.H.*.Y.&XY.J.g._.k.",
"l.' ! y '  . .7.S.9./ ,./ <.J.J.l.M.r.W.w.Q.XX`.K.:.7 R f B _ k C p ` w d ! *.m >.` I.J.$ E s G.P.j.H.G.S.G.P.K.j.Y.K.u k.",
"k.O.O.1.E R E S -.-.R @.b > o > # F 8 c E P 3 v n $.1.a.,.w..XJ.h.R ,.s.,.R O.c.q.l.,.d.t.,.d.r.Y &.,.d.Y Y ,.k.O.O.w.M.v.",
"v.w.j.h.2.s.v.,.c.j.w.j.v.P.v.n.(.n.h.R h.@X;XT - ` >.i.g.M.k.b r.n.].M.E.x.~.S h.v n.F % !.~.c.w.2.j.2.Y.R r.h.t.2.,.a.2.",
"O.c.0 4 K X.$.,.r.L X.A A Y q X.o.s.n.|.a.;.t ! ;.P.Q.L.l.f.h.~. XE.0.x.0.n.n.n.7 t.*.C ` G.T W.w.;.I / D.*.8.j.H.2.).3.1.",
"j.O.S $.#.+.a.c.@.&.%.+.q Z z.q.o.v.OXx.,.3.B C j.G.I.[.-Xm.n.!.#X}.N.~.W.v.x.v.c.j.8.a ` ;.Q.w.2.H.' y.f.9.K.Y.J.R.G.j.-.",
"h.X.Y x.z.$.+.X.z.z.+.c.n.0.z.c.0.b.z.x.c 3...J.M l.OXY.J.j.W.!.#X~.|.|.b.r.c.0.q.w.O.G.I.j.r.w.w.T.' 6.H.` j.d.d.j.H.f.` ",
"P.o.h.x.n.m.c M.r.,.r.E > @.b.x.(.!.L r.L ) ' ) ^.} G.^.OXT w.|. Xb.|.|.|.#Xx.x.#.$.&.^.J.2 j.w.m.K.H 6.f.y.H.S.H.:.y.) K ",
"O.c q.n.c.w.x.|.v.c j.Y Y r.@.S oXN. XoXY 3._ f.K.l.P.Y.OXr.s.x.b.|.E.!.!.E.c.z.x.k.*.j.H.<.S S w.D.j W J  .9.S.y.2.>.V P ",
"h.X.c s.w.o.r.z.,.&.P.,.@.%.z.%.M.r.#X-Xw.C ;.i.f.;.j.7.[.P o.n.|.z.M.r.M.b.N.c.b.M.J.` T.J.7.;Xh.f.t j p ( 8._ 7.) *.I x ",
".Xq A Y k.1 L Y s.2.z v.q.%.X.: @ $ < 8 $.v. .C y.= U.[.E.j.X < !.z.E.M.M.!.E.OX|.|.k.d.h.S h.n.a.J + O B B S.m x I.C i z ",
"h.z n * 9 1 6 : % 1 $ > 1 9 5 9 S z ,.h.v.P 6 T H / } J I h.#.w.7 v c O.v.d.K O.j.,.d.U F w.c.O.O.:.-.Y o $ o > c P z 1 -."
};
